<svg id="visual" viewBox="0 0 900 600" width="900" height="600" xmlns="http://www.w3.org/2000/svg" xmlns:xlink="http://www.w3.org/1999/xlink" version="1.1"><rect x="0" y="0" width="900" height="600" fill="#FFFFFF"></rect><path d="M0 409L21.5 401.5C43 394 86 379 128.8 384.7C171.7 390.3 214.3 416.7 257.2 416.5C300 416.3 343 389.7 385.8 389.3C428.7 389 471.3 415 514.2 422.7C557 430.3 600 419.7 642.8 406C685.7 392.3 728.3 375.7 771.2 368.5C814 361.3 857 363.7 878.5 364.8L900 366L900 601L878.5 601C857 601 814 601 771.2 601C728.3 601 685.7 601 642.8 601C600 601 557 601 514.2 601C471.3 601 428.7 601 385.8 601C343 601 300 601 257.2 601C214.3 601 171.7 601 128.8 601C86 601 43 601 21.5 601L0 601Z" fill="#fa7268"></path><path d="M0 471L21.5 459.7C43 448.3 86 425.7 128.8 417.2C171.7 408.7 214.3 414.3 257.2 425.7C300 437 343 454 385.8 454C428.7 454 471.3 437 514.2 432.8C557 428.7 600 437.3 642.8 435C685.7 432.7 728.3 419.3 771.2 410.8C814 402.3 857 398.7 878.5 396.8L900 395L900 601L878.5 601C857 601 814 601 771.2 601C728.3 601 685.7 601 642.8 601C600 601 557 601 514.2 601C471.3 601 428.7 601 385.8 601C343 601 300 601 257.2 601C214.3 601 171.7 601 128.8 601C86 601 43 601 21.5 601L0 601Z" fill="#ef5f67"></path><path d="M0 484L21.5 480.5C43 477 86 470 128.8 469.2C171.7 468.3 214.3 473.7 257.2 480.7C300 487.7 343 496.3 385.8 498.8C428.7 501.3 471.3 497.7 514.2 495.5C557 493.3 600 492.7 642.8 494.5C685.7 496.3 728.3 500.7 771.2 496.5C814 492.3 857 479.7 878.5 473.3L900 467L900 601L878.5 601C857 601 814 601 771.2 601C728.3 601 685.7 601 642.8 601C600 601 557 601 514.2 601C471.3 601 428.7 601 385.8 601C343 601 300 601 257.2 601C214.3 601 171.7 601 128.8 601C86 601 43 601 21.5 601L0 601Z" fill="#e34c67"></path><path d="M0 529L21.5 525.5C43 522 86 515 128.8 509.8C171.7 504.7 214.3 501.3 257.2 507C300 512.7 343 527.3 385.8 525.7C428.7 524 471.3 506 514.2 498.2C557 490.3 600 492.7 642.8 495C685.7 497.3 728.3 499.7 771.2 498.8C814 498 857 494 878.5 492L900 490L900 601L878.5 601C857 601 814 601 771.2 601C728.3 601 685.7 601 642.8 601C600 601 557 601 514.2 601C471.3 601 428.7 601 385.8 601C343 601 300 601 257.2 601C214.3 601 171.7 601 128.8 601C86 601 43 601 21.5 601L0 601Z" fill="#d53867"></path><path d="M0 566L21.5 560.2C43 554.3 86 542.7 128.8 542C171.7 541.3 214.3 551.7 257.2 555C300 558.3 343 554.7 385.8 552.7C428.7 550.7 471.3 550.3 514.2 552.5C557 554.7 600 559.3 642.8 562.8C685.7 566.3 728.3 568.7 771.2 567.7C814 566.7 857 562.3 878.5 560.2L900 558L900 601L878.5 601C857 601 814 601 771.2 601C728.3 601 685.7 601 642.8 601C600 601 557 601 514.2 601C471.3 601 428.7 601 385.8 601C343 601 300 601 257.2 601C214.3 601 171.7 601 128.8 601C86 601 43 601 21.5 601L0 601Z" fill="#c62368"></path></svg>